Patient4_TMGait_0pt5_02_right_12_GRF.mot
version=1
nRows=65
nColumns=19
inDegrees=no
endheader
time	F1x	F1y	F1z	M1x	M1y	M1z	F2x	F2y	F2z	M2x	M2y	M2z	EC1x	EC1y	EC1z	EC2x	EC2y	EC2z
15.75	21.1875	795.4139	62.0223	-297.4657	-36.7402	606.7078	-9.3109	-2.6609	-0.77221	-0.26772	7.2893	-10.5651	-0.0592	0.0182	-0.0073	-0.0462	0.0165	0.9585
15.7627	17.0309	784.4935	63.4065	-293.3228	-39.1585	594.7564	-6.325	-0.96697	-0.64171	0.13173	5.0401	-6.3179	-0.0592	0.0182	-0.0073	-0.0462	0.0165	0.9585
15.7754	13.7516	773.2225	64.4398	-288.8466	-40.9397	582.7856	-3.8266	0.50104	-0.50209	0.4791	3.1222	-2.7124	-0.0592	0.0182	-0.0073	-0.0462	0.0165	0.9585
15.7881	11.5445	762.5418	65.1262	-284.3974	-42.0264	571.6548	-1.9627	1.6607	-0.37532	0.75849	1.657	0.053368	-0.0592	0.0182	-0.0073	-0.0462	0.0165	0.9585
15.8009	10.3577	753.2484	65.5164	-280.3105	-42.4845	561.9482	-0.71311	2.4992	-0.27754	0.96656	0.65255	1.9801	-0.0592	0.0182	-0.0073	-0.0462	0.0165	0.9585
15.8136	10.0083	745.9115	65.6927	-276.8484	-42.4499	553.9983	0.0070009	3.0523	-0.20771	1.1093	0.04756	3.19	-0.0592	0.0182	-0.0073	-0.0462	0.0165	0.9585
15.8263	10.2895	740.787	65.73	-274.1617	-42.0615	547.8629	0.3193	3.359	-0.16651	1.1905	-0.24215	3.8187	-0.0592	0.0182	-0.0073	-0.0462	0.0165	0.9585
15.839	11.0226	737.8596	65.7	-272.2922	-41.4475	543.3955	0.3458	3.4436	-0.1478	1.2086	-0.31376	3.9962	-0.0592	0.0182	-0.0073	-0.0462	0.0165	0.9585
15.8517	12.0809	736.9476	65.6425	-271.2021	-40.6882	540.3366	0.20088	3.2862	-0.14621	1.1478	-0.25599	3.8089	-0.0592	0.0182	-0.0073	-0.0462	0.0165	0.9585
15.8644	13.3937	737.772	65.5904	-270.8016	-39.8403	538.3947	-0.011816	2.8332	-0.15374	0.98346	-0.13923	3.2833	-0.0592	0.0182	-0.0073	-0.0462	0.0165	0.9585
15.8771	14.9282	740.0041	65.5549	-270.9704	-38.9264	537.2716	-0.24014	2.0318	-0.16784	0.68976	-0.00070172	2.4276	-0.0592	0.0182	-0.0073	-0.0462	0.0165	0.9585
15.8899	16.6628	743.3219	65.5558	-271.578	-37.9704	536.7132	-0.45395	0.84053	-0.17142	0.24696	0.12249	1.2326	-0.0592	0.0182	-0.0073	-0.0462	0.0165	0.9585
15.9026	18.5877	747.3977	65.605	-272.4831	-36.9808	536.4914	-0.62519	-0.76492	-0.15576	-0.3581	0.20642	-0.30719	-0.0592	0.0182	-0.0073	-0.0462	0.0165	0.9585
15.9153	20.6916	751.8863	65.7277	-273.5345	-35.9805	536.3954	-0.70212	-2.7447	-0.098213	-1.1119	0.2088	-2.1582	-0.0592	0.0182	-0.0073	-0.0462	0.0165	0.9585
15.928	22.9393	756.3769	65.9362	-274.5586	-34.987	536.1803	-0.61853	-4.938	0.002564	-1.9533	0.10359	-4.1776	-0.0592	0.0182	-0.0073	-0.0462	0.0165	0.9585
15.9407	25.3147	760.3908	66.2355	-275.3645	-34.0109	535.5546	-0.28116	-7.0035	0.15961	-2.7469	-0.15696	-6.0636	-0.0592	0.0182	-0.0073	-0.0462	0.0165	0.9585
15.9534	27.7981	763.4016	66.5962	-275.7549	-33.0333	534.1974	0.41918	-8.3301	0.36184	-3.2509	-0.60117	-7.2712	-0.0592	0.0182	-0.0073	-0.0462	0.0165	0.9585
15.9661	30.3869	764.8354	66.9819	-275.5324	-32.0395	531.7414	1.5958	-7.9659	0.60378	-3.0922	-1.2635	-6.9507	-0.0592	0.0182	-0.0073	-0.0462	0.0165	0.9585
15.9789	33.0708	764.1481	67.3165	-274.526	-30.9898	527.8362	3.3412	-4.5656	0.84593	-1.7489	-2.1368	-3.8792	-0.0592	0.0182	-0.0073	-0.0462	0.0165	0.9585
15.9916	35.8539	760.8865	67.497	-272.6042	-29.8253	522.1869	5.687	3.58	1.0317	1.44	-3.1724	3.5013	-0.0592	0.0182	-0.0073	-0.0462	0.0165	0.9585
16.0043	38.7181	754.6869	67.3846	-269.673	-28.4637	514.5719	8.5324	18.3989	1.0578	7.2195	-4.229	16.9369	-0.0592	0.0182	-0.0073	-0.0462	0.0165	0.9585
16.017	41.6191	745.1909	66.8406	-265.6444	-26.8412	504.7952	11.5522	41.7359	0.78056	16.3008	-5.0498	38.0979	-0.0592	0.0182	-0.0073	-0.0462	0.0165	0.9585
16.0297	44.4457	731.9334	65.7098	-260.391	-24.9044	492.6086	14.0492	74.8463	-0.00055762	29.1649	-5.1811	68.1084	-0.0592	0.0182	-0.0073	-0.0462	0.0165	0.9585
16.0424	47.0178	714.2596	63.8402	-253.7089	-22.6318	477.6649	14.77	117.6745	-1.4672	45.7835	-3.9799	106.9145	-0.0592	0.0182	-0.0073	-0.0462	0.0165	0.9585
16.0551	49.0842	691.3477	61.089	-245.3241	-20.0301	459.5217	12.4031	168.0198	-3.7609	65.2973	-0.83794	152.5232	-0.0592	0.0182	-0.0073	-0.0462	0.0165	0.9585
16.0679	50.3546	662.3623	57.3739	-234.9427	-17.1583	437.7509	6.8318	221.5158	-6.9345	85.9999	4.2994	200.9456	-0.0592	0.0182	-0.0073	-0.0462	0.0165	0.9585
16.0806	50.5642	626.7087	52.7258	-222.3385	-14.1357	412.0523	-0.58953	273.0005	-11.0244	105.8764	10.9116	247.34	-0.0592	0.0182	-0.0073	-0.0462	0.0165	0.9585
16.0933	49.5105	584.2896	47.3577	-207.4417	-11.1722	382.4281	-8.2573	318.7905	-15.6336	123.5207	17.9779	288.0896	-0.0592	0.0182	-0.0073	-0.0462	0.0165	0.9585
16.106	47.1443	535.5873	41.6217	-190.3752	-8.5018	349.2043	-14.9725	358.3085	-20.2187	138.7425	24.5304	322.4301	-0.0592	0.0182	-0.0073	-0.0462	0.0165	0.9585
16.1187	43.5324	481.6417	35.9047	-171.4527	-6.3295	313.0531	-20.0833	393.3278	-24.1715	152.2688	29.7701	351.8609	-0.0592	0.0182	-0.0073	-0.0462	0.0165	0.9585
16.1314	38.8246	423.9049	30.5106	-151.145	-4.7742	274.8747	-23.3703	426.3357	-27.2112	165.0878	33.3829	378.6155	-0.0592	0.0182	-0.0073	-0.0462	0.0165	0.9585
16.1441	33.1826	364.1334	25.6063	-130.0431	-3.8601	235.753	-24.8467	459.5888	-29.3382	178.0725	35.4111	404.723	-0.0592	0.0182	-0.0073	-0.0462	0.0165	0.9585
16.1569	26.7993	304.2752	21.2504	-108.8241	-3.5418	196.8778	-24.7576	494.7976	-30.8787	191.8432	36.2763	431.779	-0.0592	0.0182	-0.0073	-0.0462	0.0165	0.9585
16.1696	19.9177	246.4007	17.4447	-88.2269	-3.7318	159.5157	-23.5211	532.9036	-32.267	206.6993	36.5492	460.7283	-0.0592	0.0182	-0.0073	-0.0462	0.0165	0.9585
16.1823	12.9233	192.5775	14.1676	-69.0049	-4.2837	124.9144	-21.7471	573.8819	-34.044	222.5403	36.9531	491.7675	-0.0592	0.0182	-0.0073	-0.0462	0.0165	0.9585
16.195	6.3361	144.6379	11.3989	-51.8366	-4.9995	94.1561	-20.0854	616.7368	-36.6117	238.8929	38.0939	524.2638	-0.0592	0.0182	-0.0073	-0.0462	0.0165	0.9585
16.2077	0.70962	103.8485	9.1073	-37.198	-5.6516	67.9776	-19.1359	659.864	-40.2009	255.0591	40.3987	557.0731	-0.0592	0.0182	-0.0073	-0.0462	0.0165	0.9585
16.2204	-3.5212	70.6597	7.2379	-25.272	-6.0415	46.6177	-19.2141	701.3917	-44.7057	270.2766	43.8927	588.7663	-0.0592	0.0182	-0.0073	-0.0462	0.0165	0.9585
16.2331	-6.1642	44.8251	5.6799	-15.987	-6.0295	29.9262	-20.3274	739.46	-49.7658	283.8295	48.2695	617.8819	-0.0592	0.0182	-0.0073	-0.0462	0.0165	0.9585
16.2459	-7.2527	25.6515	4.32	-9.1038	-5.5613	17.469	-22.2214	772.2839	-54.8559	295.0743	52.9805	642.9498	-0.0592	0.0182	-0.0073	-0.0462	0.0165	0.9585
16.2586	-7.0185	12.2323	3.0896	-4.2975	-4.6814	8.6947	-24.4953	798.1679	-59.535	303.4318	57.4979	662.5238	-0.0592	0.0182	-0.0073	-0.0462	0.0165	0.9585
16.2713	-5.9044	3.5735	2.0113	-1.2089	-3.5707	2.9735	-26.7334	815.7275	-63.4765	308.4603	61.3845	675.3992	-0.0592	0.0182	-0.0073	-0.0462	0.0165	0.9585
16.284	-4.4567	-1.3278	1.1573	0.52879	-2.4772	-0.31496	-28.5528	824.2371	-66.4801	309.9831	64.3266	680.8942	-0.0592	0.0182	-0.0073	-0.0462	0.0165	0.9585
16.2967	-3.0253	-3.5315	0.55613	1.2973	-1.5513	-1.8363	-29.6908	823.9383	-68.414	308.1924	66.114	679.1392	-0.0592	0.0182	-0.0073	-0.0462	0.0165	0.9585
16.3094	-1.7977	-3.9805	0.16819	1.437	-0.83705	-2.1948	-29.9818	816.0306	-69.2365	303.6386	66.6644	671.039	-0.0592	0.0182	-0.0073	-0.0462	0.0165	0.9585
16.3221	-0.85693	-3.4225	-0.037874	1.2189	-0.35255	-1.8784	-29.4113	802.4913	-69.0087	297.146	66.0336	658.1658	-0.0592	0.0182	-0.0073	-0.0462	0.0165	0.9585
16.3349	-0.19736	-2.4029	-0.11597	0.83958	-0.067578	-1.2552	-28.0634	785.6983	-67.9061	289.6658	64.4058	642.4133	-0.0592	0.0182	-0.0073	-0.0462	0.0165	0.9585
16.3476	0.20263	-1.2711	-0.09936	0.42674	0.05048	-0.54423	-26.1097	768.0804	-66.1895	282.1369	62.0625	625.7278	-0.0592	0.0182	-0.0073	-0.0462	0.0165	0.9585
16.3603	0.41142	-0.24774	-0.032477	0.053061	0.064249	0.1011	-23.7468	751.7778	-64.1377	275.3681	59.307	609.8239	-0.0592	0.0182	-0.0073	-0.0462	0.0165	0.9585
16.373	0.46471	0.57966	0.056089	-0.25022	0.012546	0.64251	-21.162	738.4635	-61.9849	269.9771	56.4004	596.0493	-0.0592	0.0182	-0.0073	-0.0462	0.0165	0.9585
16.3857	0.43251	1.1888	0.13854	-0.47528	-0.060085	1.0444	-18.4935	729.239	-59.8977	266.3575	53.5307	585.2833	-0.0592	0.0182	-0.0073	-0.0462	0.0165	0.9585
16.3984	0.34634	1.6064	0.20893	-0.63065	-0.14211	1.3302	-15.8187	724.5745	-57.9978	264.6575	50.821	577.8915	-0.0592	0.0182	-0.0073	-0.0462	0.0165	0.9585
16.4111	0.24299	1.8613	0.26197	-0.72737	-0.22016	1.5125	-13.1694	724.3172	-56.3695	264.7825	48.344	573.7533	-0.0592	0.0182	-0.0073	-0.0462	0.0165	0.9585
16.4239	0.13363	1.9862	0.31139	-0.77684	-0.30303	1.6124	-10.5346	727.7863	-55.0726	266.439	46.1333	572.327	-0.0592	0.0182	-0.0073	-0.0462	0.0165	0.9585
16.4366	0.02173	1.9974	0.35378	-0.78323	-0.3849	1.6266	-7.9017	733.9603	-54.1215	269.207	44.184	572.8204	-0.0592	0.0182	-0.0073	-0.0462	0.0165	0.9585
16.4493	-0.088911	1.8879	0.39524	-0.74091	-0.47012	1.5334	-5.2233	741.6691	-53.4973	272.6174	42.4525	574.3248	-0.0592	0.0182	-0.0073	-0.0462	0.0165	0.9585
16.462	-0.21198	1.6314	0.42654	-0.63737	-0.55095	1.3096	-2.4521	749.7644	-53.1624	276.2127	40.8784	575.9669	-0.0592	0.0182	-0.0073	-0.0462	0.0165	0.9585
16.4747	-0.33103	1.1738	0.45026	-0.45289	-0.62418	0.89888	0.42483	757.2024	-53.0713	279.5794	39.4092	576.973	-0.0592	0.0182	-0.0073	-0.0462	0.0165	0.9585
16.4874	-0.44935	0.46997	0.45336	-0.17098	-0.67398	0.26778	3.3597	763.1072	-53.1878	282.3668	38.027	576.7349	-0.0592	0.0182	-0.0073	-0.0462	0.0165	0.9585
16.5001	-0.52107	-0.52848	0.42819	0.22119	-0.67607	-0.64075	6.2522	766.8455	-53.4699	284.3168	36.7346	574.8653	-0.0592	0.0182	-0.0073	-0.0462	0.0165	0.9585
16.5129	-0.51583	-1.8119	0.34825	0.71621	-0.5904	-1.8037	8.9781	768.0958	-53.8827	285.2877	35.5581	571.2228	-0.0592	0.0182	-0.0073	-0.0462	0.0165	0.9585
16.5256	-0.34549	-3.2981	0.18814	1.28	-0.36226	-3.1642	11.4185	766.845	-54.3934	285.2518	34.5265	565.8913	-0.0592	0.0182	-0.0073	-0.0462	0.0165	0.9585
16.5383	0.080434	-4.7675	-0.093212	1.8299	0.076963	-4.528	13.4843	763.3584	-55.0042	284.2867	33.6871	559.1555	-0.0592	0.0182	-0.0073	-0.0462	0.0165	0.9585
16.551	0.88637	-5.825	-0.53321	2.2169	0.79974	-5.5443	15.1595	758.1423	-55.7267	282.5666	33.062	551.4399	-0.0592	0.0182	-0.0073	-0.0462	0.0165	0.9585
16.5637	2.1933	-5.8373	-1.1627	2.2035	1.8774	-5.6358	16.494	751.8882	-56.5938	280.3387	32.661	543.2733	-0.0592	0.0182	-0.0073	-0.0462	0.0165	0.9585
